<svg xmlns="http://www.w3.org/2000/svg" viewBox="0 0 64 64" id="Door"><path fill="#000000" d="M54.8 0H9.2c-.1 0-.21.01-.32.03-.05.01-.18.04-.21.06-.11.03-.24.07-.34.16-.05.03-.09.05-.09.06-.09.05-.17.12-.25.2-.21.21-.36.48-.4.69-.06.15-.09.32-.09.5v60.58c0 .19.02.35.07.48.08.28.22.53.34.63.1.14.22.22.22.22.21.18.47.3.76.35.09.03.2.04.31.04h45.6c.94 0 1.7-.76 1.7-1.7V1.7c0-.94-.76-1.7-1.7-1.7zm-1.71 60.59h-34.3l23.13-6.48c.41-.11.69-.49.69-.91V10.06c0-.43-.29-.8-.71-.91L19.61 3.41h33.48v57.18zM33.94 34.16v-5.05c0-.52.43-.95.95-.95s.95.43.95.95v5.05c0 .52-.43.95-.95.95s-.95-.43-.95-.95z" class="color123559 svgShape"></path></svg>