<svg xmlns="http://www.w3.org/2000/svg" enable-background="new 0 0 32 32" viewBox="0 0 32 32" id="chip"><path d="M30,11.78998c0.83002,0,1.5-0.66998,1.5-1.5c0-0.82001-0.66998-1.5-1.5-1.5h-3.40997C26.41998,7,25,5.57996,23.21002,5.40997V2c0-0.83002-0.67999-1.5-1.5-1.5c-0.83002,0-1.5,0.66998-1.5,1.5v3.37H17.5V2c0-0.83002-0.66998-1.5-1.5-1.5S14.5,1.16998,14.5,2v3.37h-2.71002V2c0-0.83002-0.66998-1.5-1.5-1.5c-0.82001,0-1.5,0.66998-1.5,1.5v3.40997C7,5.57996,5.58002,7,5.40997,8.78998H2c-0.83002,0-1.5,0.67999-1.5,1.5c0,0.83002,0.66998,1.5,1.5,1.5h3.37V14.5H2c-0.83002,0-1.5,0.66998-1.5,1.5c0,0.82996,0.66998,1.5,1.5,1.5h3.37v2.70996H2c-0.83002,0-1.5,0.67004-1.5,1.5c0,0.82001,0.66998,1.5,1.5,1.5h3.40997C5.58002,25,7,26.41998,8.78998,26.58997V30c0,0.82996,0.67999,1.5,1.5,1.5c0.83002,0,1.5-0.67004,1.5-1.5v-3.37H14.5V30c0,0.82996,0.66998,1.5,1.5,1.5s1.5-0.67004,1.5-1.5v-3.37h2.71002V30c0,0.82996,0.66998,1.5,1.5,1.5c0.82001,0,1.5-0.67004,1.5-1.5v-3.41003c1.78998-0.16998,3.20996-1.58997,3.38-3.38H30c0.83002,0,1.5-0.67999,1.5-1.5c0-0.82996-0.66998-1.5-1.5-1.5h-3.37V17.5H30c0.83002,0,1.5-0.67004,1.5-1.5c0-0.83002-0.66998-1.5-1.5-1.5h-3.37v-2.71002H30z" fill="#000000" class="color000000 svgShape"></path></svg>